<svg width="600" height="338" viewBox="0 0 600 338" fill="none" xmlns="http://www.w3.org/2000/svg">
  <!-- Background -->
  <rect width="600" height="338" fill="#fafafa" />
  
  <!-- Header -->
  <rect x="0" y="0" width="600" height="70" fill="#ffffff" />
  <rect x="0" y="69" width="600" height="1" fill="#e2e8f0" />
  
  <!-- Navigation -->
  <text x="40" y="43" font-family="Arial, sans-serif" font-size="20" font-weight="bold" fill="#0f172a">Portfolio</text>
  <text x="350" y="43" font-family="Arial, sans-serif" font-size="14" fill="#64748b">Home</text>
  <text x="400" y="43" font-family="Arial, sans-serif" font-size="14" fill="#64748b">About</text>
  <text x="455" y="43" font-family="Arial, sans-serif" font-size="14" fill="#64748b">Services</text>
  <text x="530" y="43" font-family="Arial, sans-serif" font-size="14" fill="#64748b">Contact</text>
  
  <!-- Theme Toggle -->
  <circle cx="565" cy="35" r="15" fill="#f1f5f9" />
  <circle cx="565" cy="35" r="7" fill="#0f172a" />
  
  <!-- Hero Section -->
  <text x="70" y="130" font-family="Arial, sans-serif" font-size="28" font-weight="bold" fill="#0f172a">Hi, I'm John Smith</text>
  <text x="70" y="165" font-family="Arial, sans-serif" font-size="16" fill="#475569">Frontend Developer & UI/UX Designer</text>
  
  <rect x="70" y="190" width="140" height="40" rx="20" fill="#3b82f6" />
  <text x="140" y="215" font-family="Arial, sans-serif" font-size="14" font-weight="bold" fill="#ffffff" text-anchor="middle">Hire Me</text>
  
  <rect x="220" y="190" width="140" height="40" rx="20" fill="#ffffff" stroke="#3b82f6" />
  <text x="290" y="215" font-family="Arial, sans-serif" font-size="14" font-weight="bold" fill="#3b82f6" text-anchor="middle">Download CV</text>
  
  <!-- Profile Image -->
  <circle cx="480" cy="160" r="80" fill="#e2e8f0" />
  <path d="M480 110 L520 170 L440 170 Z" fill="#3b82f6" />
  
  <!-- Services Section -->
  <text x="70" y="270" font-family="Arial, sans-serif" font-size="22" font-weight="bold" fill="#0f172a">What I Do</text>
  <rect x="70" y="280" width="40" height="3" fill="#3b82f6" />
  
  <!-- Service Cards -->
  <rect x="70" y="295" width="140" height="30" rx="4" fill="#ffffff" stroke="#e2e8f0" />
  <text x="140" y="315" font-family="Arial, sans-serif" font-size="12" fill="#0f172a" text-anchor="middle">Web Development</text>
  
  <rect x="220" y="295" width="140" height="30" rx="4" fill="#ffffff" stroke="#e2e8f0" />
  <text x="290" y="315" font-family="Arial, sans-serif" font-size="12" fill="#0f172a" text-anchor="middle">UI/UX Design</text>
  
  <rect x="370" y="295" width="140" height="30" rx="4" fill="#ffffff" stroke="#e2e8f0" />
  <text x="440" y="315" font-family="Arial, sans-serif" font-size="12" fill="#0f172a" text-anchor="middle">Mobile Development</text>
</svg> 