<svg width="300" height="400" viewBox="0 0 300 400" fill="none" xmlns="http://www.w3.org/2000/svg">
  <rect width="300" height="400" fill="#0f0f17"/>
  
  <!-- Terminal Header -->
  <rect x="20" y="20" width="260" height="30" rx="6" fill="#1e1e2e"/>
  <rect x="20" y="20" width="260" height="20" rx="6" fill="#282a36"/>
  <circle cx="35" cy="30" r="5" fill="#ff5f56"/>
  <circle cx="55" cy="30" r="5" fill="#ffbd2e"/>
  <circle cx="75" cy="30" r="5" fill="#27c93f"/>
  <text x="150" y="33" font-family="monospace" font-size="10" fill="#6c7293" text-anchor="middle">welcome.sh</text>
  
  <!-- Terminal Content -->
  <rect x="20" y="50" width="260" height="120" rx="0" fill="#1e1e2e"/>
  <text x="30" y="70" font-family="monospace" font-size="10" fill="#00ff9d">user</text>
  <text x="80" y="70" font-family="monospace" font-size="10" fill="#ff3864">~</text>
  <text x="90" y="70" font-family="monospace" font-size="10" fill="#f8f8f2">$ ./welcome.sh</text>
  
  <text x="30" y="90" font-family="monospace" font-size="12" fill="#00ff9d">Hello World!</text>
  <text x="30" y="110" font-family="monospace" font-size="12" fill="#f8f8f2">I'm </text>
  <text x="50" y="110" font-family="monospace" font-size="12" fill="#00ff9d">John Doe</text>
  <text x="30" y="130" font-family="monospace" font-size="12" fill="#ff3864">Full Stack Developer</text>
  <text x="30" y="150" font-family="monospace" font-size="10" fill="#6c7293">Building robust, scalable solutions</text>
  
  <!-- Code Block -->
  <rect x="20" y="190" width="260" height="100" rx="6" fill="#1e1e2e"/>
  <rect x="20" y="190" width="260" height="20" rx="6" fill="#282a36"/>
  <text x="35" y="205" font-family="monospace" font-size="10" fill="#6c7293">Profile.js</text>
  
  <text x="30" y="225" font-family="monospace" font-size="10" fill="#ff79c6">const</text>
  <text x="65" y="225" font-family="monospace" font-size="10" fill="#bd93f9">developer</text>
  <text x="125" y="225" font-family="monospace" font-size="10" fill="#f8f8f2">= {</text>
  
  <text x="40" y="240" font-family="monospace" font-size="10" fill="#8be9fd">name</text>
  <text x="70" y="240" font-family="monospace" font-size="10" fill="#f8f8f2">:</text>
  <text x="80" y="240" font-family="monospace" font-size="10" fill="#f1fa8c">"John Doe"</text>
  <text x="130" y="240" font-family="monospace" font-size="10" fill="#f8f8f2">,</text>
  
  <text x="40" y="255" font-family="monospace" font-size="10" fill="#8be9fd">title</text>
  <text x="70" y="255" font-family="monospace" font-size="10" fill="#f8f8f2">:</text>
  <text x="80" y="255" font-family="monospace" font-size="10" fill="#f1fa8c">"Full Stack Developer"</text>
  <text x="210" y="255" font-family="monospace" font-size="10" fill="#f8f8f2">,</text>
  
  <text x="40" y="270" font-family="monospace" font-size="10" fill="#8be9fd">skills</text>
  <text x="70" y="270" font-family="monospace" font-size="10" fill="#f8f8f2">: [</text>
  <text x="90" y="270" font-family="monospace" font-size="10" fill="#f1fa8c">"JavaScript"</text>
  <text x="160" y="270" font-family="monospace" font-size="10" fill="#f8f8f2">,</text>
  <text x="170" y="270" font-family="monospace" font-size="10" fill="#f1fa8c">"React"</text>
  <text x="210" y="270" font-family="monospace" font-size="10" fill="#f8f8f2">, ...]</text>
  
  <text x="30" y="285" font-family="monospace" font-size="10" fill="#f8f8f2">};</text>
  
  <!-- Project Cards -->
  <rect x="20" y="310" width="125" height="70" rx="6" fill="#1e1e2e"/>
  <rect x="30" y="320" width="20" height="20" rx="3" fill="#00ff9d" fill-opacity="0.2"/>
  <text x="40" y="335" font-family="monospace" font-size="14" fill="#00ff9d" text-anchor="middle">📁</text>
  <text x="60" y="335" font-family="monospace" font-size="10" fill="#f8f8f2">Project 1</text>
  <text x="40" y="355" font-family="monospace" font-size="8" fill="#6c7293">React Node.js MongoDB</text>
  <rect x="30" y="365" width="8" height="8" rx="4" fill="#00ff9d"/>
  <text x="45" y="372" font-family="monospace" font-size="8" fill="#6c7293">Production</text>
  
  <rect x="155" y="310" width="125" height="70" rx="6" fill="#1e1e2e"/>
  <rect x="165" y="320" width="20" height="20" rx="3" fill="#00ff9d" fill-opacity="0.2"/>
  <text x="175" y="335" font-family="monospace" font-size="14" fill="#00ff9d" text-anchor="middle">📁</text>
  <text x="195" y="335" font-family="monospace" font-size="10" fill="#f8f8f2">Project 2</text>
  <text x="175" y="355" font-family="monospace" font-size="8" fill="#6c7293">Vue.js Express PostgreSQL</text>
  <rect x="165" y="365" width="8" height="8" rx="4" fill="#00ff9d"/>
  <text x="180" y="372" font-family="monospace" font-size="8" fill="#6c7293">Production</text>
  
  <!-- Binary Pattern Overlay -->
  <text x="10" y="20" font-family="monospace" font-size="10" fill="#00ff9d" fill-opacity="0.1">01001</text>
  <text x="10" y="40" font-family="monospace" font-size="10" fill="#00ff9d" fill-opacity="0.1">10110</text>
  <text x="10" y="60" font-family="monospace" font-size="10" fill="#00ff9d" fill-opacity="0.1">01010</text>
  <text x="10" y="80" font-family="monospace" font-size="10" fill="#00ff9d" fill-opacity="0.1">11001</text>
  
  <text x="270" y="380" font-family="monospace" font-size="10" fill="#00ff9d" fill-opacity="0.1">01001</text>
  <text x="270" y="360" font-family="monospace" font-size="10" fill="#00ff9d" fill-opacity="0.1">10110</text>
  <text x="270" y="340" font-family="monospace" font-size="10" fill="#00ff9d" fill-opacity="0.1">01010</text>
  <text x="270" y="320" font-family="monospace" font-size="10" fill="#00ff9d" fill-opacity="0.1">11001</text>
</svg> 