<svg width="300" height="400" viewBox="0 0 300 400" fill="none" xmlns="http://www.w3.org/2000/svg">
  <!-- Background -->
  <rect width="300" height="400" fill="#ffffff" />
  
  <!-- Custom Cursor (icon) -->
  <circle cx="280" cy="20" r="8" fill="none" stroke="#e0e0e0" stroke-width="1" />
  <circle cx="280" cy="20" r="3" fill="#333333" />
  
  <!-- Header -->
  <rect x="0" y="0" width="300" height="60" fill="#ffffff" />
  <rect x="0" y="59" width="300" height="1" fill="#f0f0f0" />
  
  <!-- Logo -->
  <circle cx="30" cy="30" r="20" fill="#444444" />
  <text x="30" y="35" font-family="'Playfair Display', serif" font-size="14" fill="#ffffff" text-anchor="middle">JD</text>
  
  <!-- Navigation -->
  <text x="80" y="30" font-family="'Montserrat', sans-serif" font-size="8" font-weight="500" letter-spacing="1" fill="#333333">ABOUT</text>
  <text x="120" y="30" font-family="'Montserrat', sans-serif" font-size="8" font-weight="500" letter-spacing="1" fill="#333333">EXPERIENCE</text>
  <text x="180" y="30" font-family="'Montserrat', sans-serif" font-size="8" font-weight="500" letter-spacing="1" fill="#333333">SKILLS</text>
  <text x="215" y="30" font-family="'Montserrat', sans-serif" font-size="8" font-weight="500" letter-spacing="1" fill="#333333">CONTACT</text>
  
  <!-- Theme & Menu toggle -->
  <text x="245" y="32" font-family="'Montserrat', sans-serif" font-size="10" fill="#333333">☾</text>
  <text x="265" y="32" font-family="'Montserrat', sans-serif" font-size="10" fill="#333333">☰</text>
  
  <!-- Hero Section -->
  <rect x="0" y="60" width="300" height="140" fill="#ffffff" />
  
  <!-- Hero Content -->
  <text x="25" y="90" font-family="'Montserrat', sans-serif" font-size="8" font-weight="500" letter-spacing="2" fill="#999999">HELLO, I AM</text>
  <text x="25" y="115" font-family="'Playfair Display', serif" font-size="24" font-weight="bold" fill="#333333">John Doe</text>
  <text x="25" y="135" font-family="'Montserrat', sans-serif" font-size="12" fill="#666666">Product Designer</text>
  
  <rect x="25" y="150" width="180" height="1" fill="#f0f0f0" />
  
  <text x="25" y="170" font-family="'Montserrat', sans-serif" font-size="8" fill="#666666">I design beautiful digital experiences with a focus on</text>
  <text x="25" y="182" font-family="'Montserrat', sans-serif" font-size="8" fill="#666666">usability and functionality.</text>
  
  <!-- CTA Buttons -->
  <rect x="25" y="195" width="80" height="24" rx="0" fill="#333333" />
  <text x="65" y="209" font-family="'Montserrat', sans-serif" font-size="8" fill="#ffffff" text-anchor="middle">GET IN TOUCH</text>
  
  <rect x="115" y="195" width="90" height="24" rx="0" fill="none" stroke="#333333" />
  <text x="160" y="209" font-family="'Montserrat', sans-serif" font-size="8" fill="#333333" text-anchor="middle">DOWNLOAD CV</text>
  
  <!-- Profile Image -->
  <circle cx="240" cy="125" r="40" fill="#f8f8f8" stroke="#e0e0e0" />
  <text x="240" y="133" font-family="'Playfair Display', serif" font-size="22" fill="#333333" text-anchor="middle">JD</text>
  
  <!-- About Section -->
  <rect x="0" y="200" width="300" height="100" fill="#fafafa" />
  
  <!-- Section Header -->
  <text x="25" y="230" font-family="'Montserrat', sans-serif" font-size="8" font-weight="500" letter-spacing="2" fill="#999999">ABOUT ME</text>
  <text x="25" y="250" font-family="'Playfair Display', serif" font-size="16" font-weight="bold" fill="#333333">My Story</text>
  
  <line x1="25" y1="260" x2="45" y2="260" stroke="#333333" stroke-width="2" />
  
  <!-- About blocks -->
  <rect x="25" y="270" width="110" height="60" rx="2" fill="#ffffff" stroke="#f0f0f0" />
  <text x="35" y="285" font-family="'Playfair Display', serif" font-size="10" font-weight="bold" fill="#333333">Who I Am</text>
  <text x="35" y="300" font-family="'Montserrat', sans-serif" font-size="6" fill="#666666">A product designer with</text>
  <text x="35" y="308" font-family="'Montserrat', sans-serif" font-size="6" fill="#666666">a passion for creating</text>
  <text x="35" y="316" font-family="'Montserrat', sans-serif" font-size="6" fill="#666666">innovative solutions.</text>
  
  <rect x="145" y="270" width="110" height="60" rx="2" fill="#ffffff" stroke="#f0f0f0" />
  <text x="155" y="285" font-family="'Playfair Display', serif" font-size="10" font-weight="bold" fill="#333333">Contact Details</text>
  <text x="155" y="300" font-family="'Montserrat', sans-serif" font-size="6" fill="#666666">Email: john@doe.com</text>
  <text x="155" y="308" font-family="'Montserrat', sans-serif" font-size="6" fill="#666666">Phone: 555-123-4567</text>
  <text x="155" y="316" font-family="'Montserrat', sans-serif" font-size="6" fill="#666666">Location: New York</text>
  
  <!-- Skills Section -->
  <rect x="0" y="300" width="300" height="100" fill="#ffffff" />
  
  <!-- Section Header -->
  <text x="25" y="330" font-family="'Montserrat', sans-serif" font-size="8" font-weight="500" letter-spacing="2" fill="#999999">SKILLS</text>
  <text x="25" y="350" font-family="'Playfair Display', serif" font-size="16" font-weight="bold" fill="#333333">My Expertise</text>
  
  <line x1="25" y1="360" x2="45" y2="360" stroke="#333333" stroke-width="2" />
  
  <!-- Skill bars -->
  <rect x="25" y="375" width="70" height="16" rx="0" fill="#ffffff" stroke="#f0f0f0" />
  <text x="35" y="385" font-family="'Montserrat', sans-serif" font-size="6" fill="#333333">UI Design</text>
  <rect x="105" y="380" width="160" height="6" rx="3" fill="#f0f0f0" />
  <rect x="105" y="380" width="144" height="6" rx="3" fill="#333333" />
  <text x="275" y="385" font-family="'Montserrat', sans-serif" font-size="6" fill="#666666" text-anchor="end">90%</text>
  
  <rect x="25" y="395" width="70" height="16" rx="0" fill="#ffffff" stroke="#f0f0f0" />
  <text x="35" y="405" font-family="'Montserrat', sans-serif" font-size="6" fill="#333333">UX Research</text>
  <rect x="105" y="400" width="160" height="6" rx="3" fill="#f0f0f0" />
  <rect x="105" y="400" width="136" height="6" rx="3" fill="#333333" />
  <text x="275" y="405" font-family="'Montserrat', sans-serif" font-size="6" fill="#666666" text-anchor="end">85%</text>
</svg> 