<svg width="600" height="338" viewBox="0 0 600 338" fill="none" xmlns="http://www.w3.org/2000/svg">
  <!-- Background -->
  <rect width="600" height="338" fill="#ffffff" />
  
  <!-- Header -->
  <rect x="0" y="0" width="600" height="70" fill="#1e293b" />
  
  <!-- Navigation -->
  <text x="50" y="43" font-family="Arial, sans-serif" font-size="20" font-weight="bold" fill="#ffffff">Portfolio</text>
  <text x="350" y="43" font-family="Arial, sans-serif" font-size="14" fill="#94a3b8">Home</text>
  <text x="410" y="43" font-family="Arial, sans-serif" font-size="14" fill="#94a3b8">About</text>
  <text x="470" y="43" font-family="Arial, sans-serif" font-size="14" fill="#94a3b8">Projects</text>
  <text x="540" y="43" font-family="Arial, sans-serif" font-size="14" fill="#94a3b8">Contact</text>
  
  <!-- Hero Section -->
  <rect x="0" y="70" width="600" height="120" fill="#0f172a" />
  <text x="50" y="130" font-family="Arial, sans-serif" font-size="28" font-weight="bold" fill="#ffffff">Hello, I'm John Smith</text>
  <text x="50" y="165" font-family="Arial, sans-serif" font-size="16" fill="#94a3b8">Full Stack Developer based in New York</text>
  
  <!-- Social Icons -->
  <circle cx="50" cy="195" r="15" fill="#4f46e5" />
  <circle cx="90" cy="195" r="15" fill="#4f46e5" />
  <circle cx="130" cy="195" r="15" fill="#4f46e5" />
  
  <!-- About Section -->
  <rect x="0" y="190" width="600" height="148" fill="#f8fafc" />
  <text x="50" y="230" font-family="Arial, sans-serif" font-size="18" font-weight="bold" fill="#0f172a">About Me</text>
  <rect x="50" y="240" width="30" height="3" fill="#4f46e5" />
  
  <!-- About Content -->
  <rect x="50" y="255" width="250" height="5" rx="2.5" fill="#cbd5e1" />
  <rect x="50" y="270" width="220" height="5" rx="2.5" fill="#cbd5e1" />
  <rect x="50" y="285" width="240" height="5" rx="2.5" fill="#cbd5e1" />
  <rect x="50" y="300" width="200" height="5" rx="2.5" fill="#cbd5e1" />
  
  <!-- Profile Image -->
  <rect x="400" y="220" width="150" height="100" rx="8" fill="#dbeafe" />
  <circle cx="475" cy="250" r="25" fill="#4f46e5" />
  <text x="475" y="257" font-family="Arial, sans-serif" font-size="16" font-weight="bold" fill="#ffffff" text-anchor="middle">JS</text>
</svg> 