<svg width="300" height="400" viewBox="0 0 300 400" fill="none" xmlns="http://www.w3.org/2000/svg">
  <!-- Background -->
  <rect width="300" height="400" fill="#f8f9fa" />
  
  <!-- Header -->
  <rect x="0" y="0" width="300" height="60" fill="#ffffff" />
  <rect x="0" y="59" width="300" height="1" fill="#e5e7eb" />
  
  <!-- Logo -->
  <circle cx="30" cy="30" r="20" fill="#333333" />
  <text x="30" y="35" font-family="'Inter', sans-serif" font-size="12" font-weight="bold" fill="#ffffff" text-anchor="middle">JD</text>
  
  <!-- Navigation -->
  <text x="70" y="25" font-family="'Inter', sans-serif" font-size="10" fill="#333333">About</text>
  <text x="115" y="25" font-family="'Inter', sans-serif" font-size="10" fill="#333333">Experience</text>
  <text x="175" y="25" font-family="'Inter', sans-serif" font-size="10" fill="#333333">Skills</text>
  <text x="215" y="25" font-family="'Inter', sans-serif" font-size="10" fill="#333333">Projects</text>
  
  <!-- Theme toggle -->
  <circle cx="255" cy="25" r="10" fill="#f8f9fa" stroke="#e5e7eb" />
  <text x="255" y="29" font-family="'Inter', sans-serif" font-size="10" fill="#333333" text-anchor="middle">☾</text>
  
  <!-- Menu toggle -->
  <circle cx="280" cy="25" r="10" fill="#f8f9fa" stroke="#e5e7eb" />
  <line x1="275" y1="23" x2="285" y2="23" stroke="#333333" stroke-width="1.5" />
  <line x1="275" y1="27" x2="285" y2="27" stroke="#333333" stroke-width="1.5" />
  
  <!-- Hero Section -->
  <rect x="0" y="60" width="300" height="140" fill="#ffffff" />
  
  <!-- Hero Text -->
  <text x="25" y="100" font-family="'Playfair Display', serif" font-size="24" font-weight="bold" fill="#111827">John Doe</text>
  <text x="25" y="120" font-family="'Inter', sans-serif" font-size="12" fill="#4b5563">Product Designer</text>
  <text x="25" y="145" font-family="'Inter', sans-serif" font-size="8" fill="#6b7280" letter-spacing="0.5">A passionate designer with a focus on creating</text>
  <text x="25" y="155" font-family="'Inter', sans-serif" font-size="8" fill="#6b7280" letter-spacing="0.5">beautiful and functional user experiences.</text>
  
  <!-- Hero Buttons -->
  <rect x="25" y="170" width="90" height="24" rx="4" fill="#4f46e5" />
  <text x="70" y="185" font-family="'Inter', sans-serif" font-size="9" fill="#ffffff" text-anchor="middle">Get in Touch</text>
  
  <rect x="125" y="170" width="90" height="24" rx="4" fill="#ffffff" stroke="#4f46e5" />
  <text x="170" y="185" font-family="'Inter', sans-serif" font-size="9" fill="#4f46e5" text-anchor="middle">Download CV</text>
  
  <!-- Profile Image -->
  <circle cx="240" cy="130" r="40" fill="#e0e7ff" />
  <text x="240" y="140" font-family="'Inter', sans-serif" font-size="24" font-weight="bold" fill="#4f46e5" text-anchor="middle">JD</text>
  
  <!-- About Section -->
  <rect x="0" y="200" width="300" height="90" fill="#fafafa" />
  <text x="25" y="225" font-family="'Playfair Display', serif" font-size="16" font-weight="bold" fill="#111827">About Me</text>
  <text x="25" y="240" font-family="'Inter', sans-serif" font-size="8" fill="#6b7280">My background and what drives me</text>
  
  <text x="25" y="255" font-family="'Inter', sans-serif" font-size="8" fill="#4b5563" letter-spacing="0.5">With over 5 years of experience in product design,</text>
  <text x="25" y="265" font-family="'Inter', sans-serif" font-size="8" fill="#4b5563" letter-spacing="0.5">I specialize in creating intuitive interfaces that solve</text>
  <text x="25" y="275" font-family="'Inter', sans-serif" font-size="8" fill="#4b5563" letter-spacing="0.5">real user problems while maintaining visual harmony.</text>
  
  <!-- About Info -->
  <rect x="25" y="285" width="70" height="25" rx="4" fill="#f3f4f6" />
  <text x="40" y="298" font-family="'Inter', sans-serif" font-size="7" fill="#4b5563">Location</text>
  <text x="40" y="306" font-family="'Inter', sans-serif" font-size="7" fill="#111827">New York</text>
  
  <rect x="105" y="285" width="70" height="25" rx="4" fill="#f3f4f6" />
  <text x="120" y="298" font-family="'Inter', sans-serif" font-size="7" fill="#4b5563">Email</text>
  <text x="120" y="306" font-family="'Inter', sans-serif" font-size="7" fill="#111827">john@doe.com</text>
  
  <rect x="185" y="285" width="70" height="25" rx="4" fill="#f3f4f6" />
  <text x="200" y="298" font-family="'Inter', sans-serif" font-size="7" fill="#4b5563">Phone</text>
  <text x="200" y="306" font-family="'Inter', sans-serif" font-size="7" fill="#111827">555-123-4567</text>
  
  <!-- Skills Section -->
  <rect x="0" y="290" width="300" height="110" fill="#ffffff" />
  <text x="25" y="315" font-family="'Playfair Display', serif" font-size="16" font-weight="bold" fill="#111827">Skills</text>
  <text x="25" y="330" font-family="'Inter', sans-serif" font-size="8" fill="#6b7280">What I bring to the table</text>
  
  <!-- Skill Bars -->
  <text x="25" y="350" font-family="'Inter', sans-serif" font-size="8" fill="#111827">UI Design</text>
  <text x="255" y="350" font-family="'Inter', sans-serif" font-size="8" fill="#6b7280" text-anchor="end">90%</text>
  <rect x="25" y="355" width="230" height="6" rx="3" fill="#f3f4f6" />
  <rect x="25" y="355" width="207" height="6" rx="3" fill="#4f46e5" />
  
  <text x="25" y="375" font-family="'Inter', sans-serif" font-size="8" fill="#111827">UX Research</text>
  <text x="255" y="375" font-family="'Inter', sans-serif" font-size="8" fill="#6b7280" text-anchor="end">85%</text>
  <rect x="25" y="380" width="230" height="6" rx="3" fill="#f3f4f6" />
  <rect x="25" y="380" width="195" height="6" rx="3" fill="#4f46e5" />
</svg> 