<svg width="600" height="338" viewBox="0 0 600 338" fill="none" xmlns="http://www.w3.org/2000/svg">
  <!-- Background -->
  <rect width="600" height="338" fill="#ffffff" />
  
  <!-- Header Section -->
  <circle cx="80" cy="70" r="40" fill="#f5f5f5" />
  <rect x="150" y="50" width="200" height="20" rx="2" fill="#111111" />
  <rect x="150" y="80" width="140" height="12" rx="2" fill="#555555" />
  
  <!-- Divider -->
  <line x1="50" y1="140" x2="550" y2="140" stroke="#eeeeee" stroke-width="1" />
  
  <!-- About Section -->
  <rect x="50" y="160" width="100" height="16" rx="2" fill="#111111" />
  <rect x="50" y="186" width="500" height="8" rx="2" fill="#555555" />
  <rect x="50" y="200" width="460" height="8" rx="2" fill="#555555" />
  <rect x="50" y="214" width="420" height="8" rx="2" fill="#555555" />
  
  <!-- Divider -->
  <line x1="50" y1="240" x2="550" y2="240" stroke="#eeeeee" stroke-width="1" />
  
  <!-- Skills Section -->
  <rect x="50" y="260" width="100" height="16" rx="2" fill="#111111" />
  <rect x="50" y="286" width="80" height="24" rx="12" fill="#f5f5f5" />
  <rect x="140" y="286" width="80" height="24" rx="12" fill="#f5f5f5" />
  <rect x="230" y="286" width="80" height="24" rx="12" fill="#f5f5f5" />
  <rect x="320" y="286" width="80" height="24" rx="12" fill="#f5f5f5" />
  <rect x="410" y="286" width="80" height="24" rx="12" fill="#f5f5f5" />
  
  <!-- Theme Toggle -->
  <circle cx="540" cy="30" r="20" fill="#f5f5f5" />
  <path d="M540 22 C544 22 548 26 548 30 C548 34 544 38 540 38 C536 38 532 34 532 30 C532 26 536 22 540 22" fill="#111111" />
  
  <!-- Template Label -->
  <rect x="0" y="0" width="150" height="30" rx="0" fill="#333333" />
  <text x="75" y="20" font-family="Inter, sans-serif" font-size="12" font-weight="bold" fill="#ffffff" text-anchor="middle">MINIMAL PORTFOLIO</text>
</svg> 