<svg width="300" height="400" viewBox="0 0 300 400" fill="none" xmlns="http://www.w3.org/2000/svg">
  <!-- Background -->
  <rect width="300" height="400" fill="#ffffff" />
  
  <!-- Header Section -->
  <circle cx="50" cy="60" r="30" fill="#f5f5f5" />
  <rect x="100" y="40" width="150" height="15" rx="2" fill="#111111" />
  <rect x="100" y="65" width="100" height="10" rx="2" fill="#555555" />
  
  <!-- Divider -->
  <line x1="30" y1="110" x2="270" y2="110" stroke="#eeeeee" stroke-width="1" />
  
  <!-- About Section -->
  <rect x="30" y="130" width="80" height="12" rx="2" fill="#111111" />
  <rect x="30" y="152" width="240" height="6" rx="2" fill="#555555" />
  <rect x="30" y="164" width="220" height="6" rx="2" fill="#555555" />
  <rect x="30" y="176" width="200" height="6" rx="2" fill="#555555" />
  
  <!-- Divider -->
  <line x1="30" y1="200" x2="270" y2="200" stroke="#eeeeee" stroke-width="1" />
  
  <!-- Skills Section -->
  <rect x="30" y="220" width="80" height="12" rx="2" fill="#111111" />
  <rect x="30" y="242" width="60" height="20" rx="10" fill="#f5f5f5" />
  <rect x="100" y="242" width="60" height="20" rx="10" fill="#f5f5f5" />
  <rect x="170" y="242" width="60" height="20" rx="10" fill="#f5f5f5" />
  <rect x="30" y="272" width="60" height="20" rx="10" fill="#f5f5f5" />
  <rect x="100" y="272" width="60" height="20" rx="10" fill="#f5f5f5" />
  
  <!-- Divider -->
  <line x1="30" y1="310" x2="270" y2="310" stroke="#eeeeee" stroke-width="1" />
  
  <!-- Contact Section -->
  <rect x="30" y="330" width="80" height="12" rx="2" fill="#111111" />
  <rect x="30" y="352" width="240" height="30" rx="4" fill="#f5f5f5" />
  
  <!-- Theme Toggle -->
  <circle cx="270" cy="30" r="15" fill="#f5f5f5" />
  <path d="M270 24 C273 24 276 27 276 30 C276 33 273 36 270 36 C267 36 264 33 264 30 C264 27 267 24 270 24" fill="#111111" />
</svg>
