<svg width="640" height="360" viewBox="0 0 640 360" fill="none" xmlns="http://www.w3.org/2000/svg">
  <rect width="640" height="360" fill="#ffffff"/>
  
  <!-- Particle Background Simulation -->
  <circle cx="120" cy="80" r="3" fill="#4169e1" opacity="0.5"/>
  <circle cx="180" cy="50" r="2" fill="#4169e1" opacity="0.5"/>
  <circle cx="250" cy="70" r="2.5" fill="#4169e1" opacity="0.5"/>
  <circle cx="320" cy="30" r="2" fill="#4169e1" opacity="0.5"/>
  <circle cx="400" cy="90" r="3" fill="#4169e1" opacity="0.5"/>
  <circle cx="480" cy="40" r="2.5" fill="#4169e1" opacity="0.5"/>
  <circle cx="540" cy="70" r="2" fill="#4169e1" opacity="0.5"/>
  <circle cx="100" cy="140" r="2.5" fill="#4169e1" opacity="0.5"/>
  <circle cx="200" cy="180" r="3" fill="#4169e1" opacity="0.5"/>
  <circle cx="300" cy="150" r="2" fill="#4169e1" opacity="0.5"/>
  <circle cx="400" cy="170" r="2.5" fill="#4169e1" opacity="0.5"/>
  <circle cx="500" cy="130" r="3" fill="#4169e1" opacity="0.5"/>
  <circle cx="150" cy="250" r="2" fill="#4169e1" opacity="0.5"/>
  <circle cx="250" cy="280" r="3" fill="#4169e1" opacity="0.5"/>
  <circle cx="350" cy="240" r="2.5" fill="#4169e1" opacity="0.5"/>
  <circle cx="450" cy="260" r="2" fill="#4169e1" opacity="0.5"/>
  <circle cx="550" cy="230" r="3" fill="#4169e1" opacity="0.5"/>
  
  <!-- Particle Connections -->
  <line x1="120" y1="80" x2="180" y2="50" stroke="#4169e1" stroke-width="1" opacity="0.2"/>
  <line x1="180" y1="50" x2="250" y2="70" stroke="#4169e1" stroke-width="1" opacity="0.2"/>
  <line x1="250" y1="70" x2="320" y2="30" stroke="#4169e1" stroke-width="1" opacity="0.2"/>
  <line x1="320" y1="30" x2="400" y2="90" stroke="#4169e1" stroke-width="1" opacity="0.2"/>
  <line x1="400" y1="90" x2="480" y2="40" stroke="#4169e1" stroke-width="1" opacity="0.2"/>
  <line x1="480" y1="40" x2="540" y2="70" stroke="#4169e1" stroke-width="1" opacity="0.2"/>
  <line x1="100" y1="140" x2="200" y2="180" stroke="#4169e1" stroke-width="1" opacity="0.2"/>
  <line x1="200" y1="180" x2="300" y2="150" stroke="#4169e1" stroke-width="1" opacity="0.2"/>
  <line x1="300" y1="150" x2="400" y2="170" stroke="#4169e1" stroke-width="1" opacity="0.2"/>
  <line x1="400" y1="170" x2="500" y2="130" stroke="#4169e1" stroke-width="1" opacity="0.2"/>
  
  <!-- Navigation Bar -->
  <rect x="0" y="0" width="640" height="60" fill="#ffffff" stroke="#e0e0e0" stroke-width="1"/>
  <circle cx="60" cy="30" r="20" fill="#4169e1"/>
  <text x="60" y="38" font-family="Arial, sans-serif" font-size="20" fill="white" text-anchor="middle">JD</text>
  
  <text x="120" y="35" font-family="Arial, sans-serif" font-size="14" fill="#333333">Home</text>
  <text x="180" y="35" font-family="Arial, sans-serif" font-size="14" fill="#333333">About</text>
  <text x="240" y="35" font-family="Arial, sans-serif" font-size="14" fill="#333333">Skills</text>
  <text x="300" y="35" font-family="Arial, sans-serif" font-size="14" fill="#333333">Experience</text>
  <text x="380" y="35" font-family="Arial, sans-serif" font-size="14" fill="#333333">Projects</text>
  <text x="450" y="35" font-family="Arial, sans-serif" font-size="14" fill="#333333">Contact</text>
  
  <!-- Hero Section -->
  <text x="120" y="120" font-family="Arial, sans-serif" font-size="28" font-weight="bold" fill="#333333">Hi, I'm</text>
  <text x="120" y="160" font-family="Arial, sans-serif" font-size="32" font-weight="bold" fill="#4169e1">John Doe</text>
  <text x="120" y="190" font-family="Arial, sans-serif" font-size="20" fill="#333333">Web Developer</text>
  
  <text x="120" y="220" font-family="Arial, sans-serif" font-size="14" fill="#666666" width="240">Passionate web developer creating modern and responsive websites with cutting-edge technologies.</text>
  
  <rect x="120" y="250" width="140" height="40" rx="4" fill="#4169e1"/>
  <text x="190" y="275" font-family="Arial, sans-serif" font-size="14" fill="white" text-anchor="middle">Download CV</text>
  
  <rect x="270" y="250" width="140" height="40" rx="4" fill="#f5f5f5" stroke="#e0e0e0" stroke-width="1"/>
  <text x="340" y="275" font-family="Arial, sans-serif" font-size="14" fill="#333333" text-anchor="middle">Contact Me</text>
  
  <!-- Profile Image -->
  <circle cx="500" cy="170" r="80" fill="#4169e1" opacity="0.1" stroke="#4169e1" stroke-width="4"/>
  <circle cx="500" cy="170" r="65" fill="#4169e1"/>
  <text x="500" y="190" font-family="Arial, sans-serif" font-size="60" fill="white" text-anchor="middle">JD</text>
</svg> 