<svg width="300" height="400" viewBox="0 0 300 400" fill="none" xmlns="http://www.w3.org/2000/svg">
  <!-- Background -->
  <rect width="300" height="400" fill="#0a192f" />
  
  <!-- Matrix Effect -->
  <g opacity="0.1">
    <text x="10" y="20" font-family="monospace" font-size="10" fill="#00ff00">01010111</text>
    <text x="50" y="40" font-family="monospace" font-size="10" fill="#00ff00">10101010</text>
    <text x="90" y="60" font-family="monospace" font-size="10" fill="#00ff00">01010101</text>
    <text x="130" y="80" font-family="monospace" font-size="10" fill="#00ff00">10101010</text>
    <text x="170" y="100" font-family="monospace" font-size="10" fill="#00ff00">01010101</text>
    <text x="210" y="120" font-family="monospace" font-size="10" fill="#00ff00">10101010</text>
    <text x="250" y="140" font-family="monospace" font-size="10" fill="#00ff00">01010101</text>
    <text x="30" y="160" font-family="monospace" font-size="10" fill="#00ff00">10101010</text>
    <text x="70" y="180" font-family="monospace" font-size="10" fill="#00ff00">01010101</text>
    <text x="110" y="200" font-family="monospace" font-size="10" fill="#00ff00">10101010</text>
    <text x="150" y="220" font-family="monospace" font-size="10" fill="#00ff00">01010101</text>
    <text x="190" y="240" font-family="monospace" font-size="10" fill="#00ff00">10101010</text>
    <text x="230" y="260" font-family="monospace" font-size="10" fill="#00ff00">01010101</text>
    <text x="10" y="280" font-family="monospace" font-size="10" fill="#00ff00">10101010</text>
    <text x="50" y="300" font-family="monospace" font-size="10" fill="#00ff00">01010101</text>
    <text x="90" y="320" font-family="monospace" font-size="10" fill="#00ff00">10101010</text>
    <text x="130" y="340" font-family="monospace" font-size="10" fill="#00ff00">01010101</text>
    <text x="170" y="360" font-family="monospace" font-size="10" fill="#00ff00">10101010</text>
    <text x="210" y="380" font-family="monospace" font-size="10" fill="#00ff00">01010101</text>
  </g>
  
  <!-- Terminal Window -->
  <rect x="20" y="20" width="260" height="160" rx="5" fill="#1c2333" />
  
  <!-- Terminal Bar -->
  <rect x="20" y="20" width="260" height="25" rx="5" fill="#323846" />
  
  <!-- Terminal Buttons -->
  <circle cx="35" cy="32.5" r="6" fill="#ff5f56" />
  <circle cx="55" cy="32.5" r="6" fill="#ffbd2e" />
  <circle cx="75" cy="32.5" r="6" fill="#27c93f" />
  
  <!-- Terminal Title -->
  <text x="140" y="35" font-family="'Fira Code', monospace" font-size="10" fill="#a0a0a0" text-anchor="middle">jon_doe@portfolio ~ </text>
  
  <!-- Terminal Content -->
  <text x="30" y="60" font-family="'Fira Code', monospace" font-size="10" fill="#00ff00">$</text>
  <text x="45" y="60" font-family="'Fira Code', monospace" font-size="10" fill="#f8f9fa">cd portfolio</text>
  
  <text x="30" y="80" font-family="'Fira Code', monospace" font-size="10" fill="#00ff00">$</text>
  <text x="45" y="80" font-family="'Fira Code', monospace" font-size="10" fill="#f8f9fa">ls -la</text>
  
  <text x="45" y="100" font-family="'Fira Code', monospace" font-size="10" fill="#a0a0a0">drwxr-xr-x  about/</text>
  <text x="45" y="120" font-family="'Fira Code', monospace" font-size="10" fill="#a0a0a0">drwxr-xr-x  skills/</text>
  <text x="45" y="140" font-family="'Fira Code', monospace" font-size="10" fill="#a0a0a0">drwxr-xr-x  projects/</text>
  
  <text x="30" y="160" font-family="'Fira Code', monospace" font-size="10" fill="#00ff00">$</text>
  <text x="45" y="160" font-family="'Fira Code', monospace" font-size="10" fill="#f8f9fa">_</text>
  
  <!-- Navigation -->
  <rect x="20" y="190" width="260" height="30" rx="5" fill="#112240" />
  <text x="150" y="210" font-family="'Fira Code', monospace" font-size="10" fill="#f8f9fa" text-anchor="middle">about  experience  education  skills  projects  contact</text>
  
  <!-- Profile Section -->
  <rect x="60" y="230" width="180" height="30" rx="0" fill="none" stroke="#00ff00" stroke-width="1" />
  <text x="150" y="250" font-family="'Fira Code', monospace" font-size="14" fill="#f8f9fa" text-anchor="middle">Jon Doe</text>
  
  <text x="150" y="270" font-family="'Fira Code', monospace" font-size="10" fill="#0066ff" text-anchor="middle">Computer Science Student</text>
  
  <!-- Skills Section -->
  <text x="30" y="300" font-family="'Fira Code', monospace" font-size="12" fill="#00ff00">Skills.filter()</text>
  
  <!-- Skill Bars -->
  <text x="30" y="320" font-family="'Fira Code', monospace" font-size="10" fill="#f8f9fa">Python</text>
  <rect x="100" y="315" width="150" height="8" rx="4" fill="#112240" />
  <rect x="100" y="315" width="135" height="8" rx="4" fill="#00ff00" />
  
  <text x="30" y="340" font-family="'Fira Code', monospace" font-size="10" fill="#f8f9fa">JavaScript</text>
  <rect x="100" y="335" width="150" height="8" rx="4" fill="#112240" />
  <rect x="100" y="335" width="127" height="8" rx="4" fill="#00ff00" />
  
  <!-- Projects Section -->
  <text x="30" y="360" font-family="'Fira Code', monospace" font-size="12" fill="#00ff00">Projects.forEach()</text>
  
  <!-- Project Cards -->
  <rect x="30" y="370" width="100" height="20" rx="2" fill="#112240" />
  <text x="80" y="384" font-family="'Fira Code', monospace" font-size="8" fill="#f8f9fa" text-anchor="middle">Project 1</text>
  
  <rect x="140" y="370" width="100" height="20" rx="2" fill="#112240" />
  <text x="190" y="384" font-family="'Fira Code', monospace" font-size="8" fill="#f8f9fa" text-anchor="middle">Project 2</text>
</svg>
