<svg width="600" height="338" viewBox="0 0 600 338" fill="none" xmlns="http://www.w3.org/2000/svg">
  <!-- Background -->
  <rect width="600" height="338" fill="#111827" />
  
  <!-- Left Sidebar -->
  <rect x="0" y="0" width="160" height="338" fill="#1f2937" />
  
  <!-- Profile -->
  <circle cx="80" cy="60" r="40" fill="#4b5563" />
  <text x="80" y="70" font-family="'Inter', sans-serif" font-size="22" font-weight="bold" fill="#ffffff" text-anchor="middle">JD</text>
  
  <!-- Name and Title -->
  <text x="80" y="130" font-family="'Inter', sans-serif" font-size="16" font-weight="bold" fill="#ffffff" text-anchor="middle">John Doe</text>
  <text x="80" y="150" font-family="'Inter', sans-serif" font-size="12" fill="#9ca3af" text-anchor="middle">Web Developer</text>
  
  <!-- Navigation -->
  <rect x="30" y="180" width="100" height="28" rx="4" fill="#2563eb" />
  <text x="80" y="198" font-family="'Inter', sans-serif" font-size="12" fill="#ffffff" text-anchor="middle">About</text>
  
  <text x="80" y="230" font-family="'Inter', sans-serif" font-size="12" fill="#9ca3af" text-anchor="middle">Skills</text>
  <text x="80" y="260" font-family="'Inter', sans-serif" font-size="12" fill="#9ca3af" text-anchor="middle">Projects</text>
  <text x="80" y="290" font-family="'Inter', sans-serif" font-size="12" fill="#9ca3af" text-anchor="middle">Contact</text>
  
  <!-- Social Icons -->
  <rect x="45" y="320" width="20" height="20" rx="4" fill="#4b5563" />
  <rect x="75" y="320" width="20" height="20" rx="4" fill="#4b5563" />
  <rect x="105" y="320" width="20" height="20" rx="4" fill="#4b5563" />
  
  <!-- Main Content -->
  <!-- About Section -->
  <text x="190" y="50" font-family="'Inter', sans-serif" font-size="24" font-weight="bold" fill="#ffffff">About Me</text>
  <rect x="190" y="65" width="60" height="3" fill="#2563eb" />
  
  <rect x="190" y="85" width="380" height="3" fill="#4b5563" />
  <rect x="190" y="95" width="350" height="3" fill="#4b5563" />
  <rect x="190" y="105" width="370" height="3" fill="#4b5563" />
  <rect x="190" y="115" width="320" height="3" fill="#4b5563" />
  
  <!-- Skills Section -->
  <text x="190" y="155" font-family="'Inter', sans-serif" font-size="24" font-weight="bold" fill="#ffffff">Skills</text>
  <rect x="190" y="170" width="60" height="3" fill="#2563eb" />
  
  <!-- Skill Items -->
  <rect x="190" y="190" width="100" height="30" rx="4" fill="#1f2937" />
  <text x="240" y="210" font-family="'Inter', sans-serif" font-size="12" fill="#ffffff" text-anchor="middle">React</text>
  
  <rect x="300" y="190" width="100" height="30" rx="4" fill="#1f2937" />
  <text x="350" y="210" font-family="'Inter', sans-serif" font-size="12" fill="#ffffff" text-anchor="middle">Node.js</text>
  
  <rect x="410" y="190" width="100" height="30" rx="4" fill="#1f2937" />
  <text x="460" y="210" font-family="'Inter', sans-serif" font-size="12" fill="#ffffff" text-anchor="middle">TypeScript</text>
  
  <rect x="190" y="230" width="100" height="30" rx="4" fill="#1f2937" />
  <text x="240" y="250" font-family="'Inter', sans-serif" font-size="12" fill="#ffffff" text-anchor="middle">MongoDB</text>
  
  <rect x="300" y="230" width="100" height="30" rx="4" fill="#1f2937" />
  <text x="350" y="250" font-family="'Inter', sans-serif" font-size="12" fill="#ffffff" text-anchor="middle">GraphQL</text>
  
  <!-- Projects Section -->
  <text x="190" y="285" font-family="'Inter', sans-serif" font-size="24" font-weight="bold" fill="#ffffff">Projects</text>
  <rect x="190" y="300" width="60" height="3" fill="#2563eb" />
  
  <!-- Project Cards -->
  <rect x="190" y="320" width="160" height="90" rx="4" fill="#1f2937" />
  <rect x="360" y="320" width="160" height="90" rx="4" fill="#1f2937" />
</svg> 