<?xml version="1.0" encoding="UTF-8"?>
<svg xmlns="http://www.w3.org/2000/svg" viewBox="0 0 1200 800" width="1200" height="800">
  <!-- Definitions for gradients and filters -->
  <defs>
    <linearGradient id="headerGradient" x1="0%" y1="0%" x2="100%" y2="0%">
      <stop offset="0%" stop-color="#111827" />
      <stop offset="100%" stop-color="#1f2937" />
    </linearGradient>
    
    <linearGradient id="heroGradient" x1="0%" y1="0%" x2="100%" y2="100%">
      <stop offset="0%" stop-color="#1e293b" />
      <stop offset="100%" stop-color="#0f172a" />
    </linearGradient>
    
    <linearGradient id="accentGradient" x1="0%" y1="0%" x2="100%" y2="0%">
      <stop offset="0%" stop-color="#8b5cf6" />
      <stop offset="100%" stop-color="#d946ef" />
    </linearGradient>
    
    <linearGradient id="buttonGradient" x1="0%" y1="0%" x2="100%" y2="0%">
      <stop offset="0%" stop-color="#c084fc" />
      <stop offset="100%" stop-color="#a855f7" />
    </linearGradient>
    
    <filter id="dropShadow" x="-20%" y="-20%" width="140%" height="140%">
      <feGaussianBlur in="SourceAlpha" stdDeviation="3" />
      <feOffset dx="0" dy="2" result="offsetblur" />
      <feComponentTransfer>
        <feFuncA type="linear" slope="0.2" />
      </feComponentTransfer>
      <feMerge>
        <feMergeNode />
        <feMergeNode in="SourceGraphic" />
      </feMerge>
    </filter>
    
    <filter id="lightShadow" x="-10%" y="-10%" width="120%" height="120%">
      <feGaussianBlur in="SourceAlpha" stdDeviation="1" />
      <feOffset dx="0" dy="1" result="offsetblur" />
      <feComponentTransfer>
        <feFuncA type="linear" slope="0.1" />
      </feComponentTransfer>
      <feMerge>
        <feMergeNode />
        <feMergeNode in="SourceGraphic" />
      </feMerge>
    </filter>
    
    <clipPath id="avatarClip">
      <circle cx="860" cy="180" r="80" />
    </clipPath>
  </defs>
  
  <!-- Background -->
  <rect width="1200" height="800" fill="#f8fafc" />
  
  <!-- Header -->
  <rect x="0" y="0" width="1200" height="70" fill="#ffffff" filter="url(#lightShadow)" />
  
  <!-- Navigation Bar -->
  <rect x="0" y="0" width="1200" height="1" fill="#e2e8f0" />
  <circle cx="100" cy="35" r="25" fill="#c084fc" />
  <text x="100" cy="42" font-family="Arial, sans-serif" font-size="18" font-weight="bold" text-anchor="middle" fill="#ffffff">PT</text>
  
  <text x="200" y="40" font-family="Arial, sans-serif" font-size="16" font-weight="600" fill="#334155">Home</text>
  <text x="300" y="40" font-family="Arial, sans-serif" font-size="16" fill="#64748b">About</text>
  <text x="400" y="40" font-family="Arial, sans-serif" font-size="16" fill="#64748b">Skills</text>
  <text x="500" y="40" font-family="Arial, sans-serif" font-size="16" fill="#64748b">Experience</text>
  <text x="630" y="40" font-family="Arial, sans-serif" font-size="16" fill="#64748b">Projects</text>
  <text x="740" y="40" font-family="Arial, sans-serif" font-size="16" fill="#64748b">Contact</text>
  
  <circle cx="1050" cy="35" r="15" fill="#f1f5f9" stroke="#e2e8f0" stroke-width="1" />
  <circle cx="1100" cy="35" r="15" fill="#f1f5f9" stroke="#e2e8f0" stroke-width="1" />
  
  <!-- Hero Section -->
  <rect x="0" y="70" width="1200" height="400" fill="#121b2a" />
  
  <g filter="url(#dropShadow)">
    <!-- Left Content -->
    <text x="150" y="180" font-family="Arial, sans-serif" font-size="48" font-weight="bold" fill="#ffffff">Pablos Tselioudis</text>
    <text x="150" y="230" font-family="Arial, sans-serif" font-size="28" fill="#c084fc">AI Engineer</text>
    <text x="150" y="270" font-family="Arial, sans-serif" font-size="18" fill="#cbd5e1" line-height="1.5">
      I'm a skilled AI Engineer with a passion for developing innovative solutions.
    </text>
    
    <!-- CTA Button -->
    <rect x="150" y="310" width="180" height="50" rx="25" fill="url(#buttonGradient)" />
    <text x="210" y="342" font-family="Arial, sans-serif" font-size="16" font-weight="bold" text-anchor="middle" fill="#ffffff">Download CV</text>
    
    <!-- Profile Image -->
    <circle cx="860" cy="220" r="120" fill="#1e293b" stroke="#c084fc" stroke-width="3" />
    <circle cx="860" cy="220" r="110" fill="#9333ea" />
    <text x="860" cy="242" font-family="Arial, sans-serif" font-size="64" font-weight="bold" text-anchor="middle" fill="#ffffff">PT</text>
  </g>
  
  <!-- About Section -->
  <rect x="0" y="470" width="1200" height="330" fill="#ffffff" />
  
  <text x="150" y="520" font-family="Arial, sans-serif" font-size="32" font-weight="bold" fill="#0f172a">About Me</text>
  <rect x="150" y="535" width="80" height="4" rx="2" fill="#8b5cf6" />
  
  <rect x="150" y="570" width="450" height="4" rx="2" fill="#e2e8f0" />
  <rect x="150" y="585" width="400" height="4" rx="2" fill="#e2e8f0" />
  <rect x="150" y="600" width="420" height="4" rx="2" fill="#e2e8f0" />
  <rect x="150" y="615" width="380" height="4" rx="2" fill="#e2e8f0" />
  <rect x="150" y="630" width="430" height="4" rx="2" fill="#e2e8f0" />
  
  <!-- Personal Details -->
  <rect x="700" y="560" width="350" height="180" rx="8" fill="#f8fafc" stroke="#e2e8f0" stroke-width="1" />
  
  <text x="720" y="590" font-family="Arial, sans-serif" font-size="16" font-weight="bold" fill="#94a3b8">Full Name</text>
  <text x="720" y="615" font-family="Arial, sans-serif" font-size="16" fill="#334155">Pablos Tselioudis Garmendia</text>
  
  <text x="720" y="650" font-family="Arial, sans-serif" font-size="16" font-weight="bold" fill="#94a3b8">Email</text>
  <text x="720" y="675" font-family="Arial, sans-serif" font-size="16" fill="#334155">pablos.tselioudis@gmail.com</text>
  
  <text x="720" y="710" font-family="Arial, sans-serif" font-size="16" font-weight="bold" fill="#94a3b8">Profession</text>
  <text x="720" y="735" font-family="Arial, sans-serif" font-size="16" fill="#334155">AI Engineer</text>
  
  <!-- Skills Section -->
  <rect x="0" y="800" width="1200" height="300" fill="#f8fafc" />
  
  <text x="150" y="850" font-family="Arial, sans-serif" font-size="32" font-weight="bold" fill="#0f172a">My Skills</text>
  <rect x="150" y="865" width="80" height="4" rx="2" fill="#8b5cf6" />
  
  <!-- Skill Cards -->
  <g transform="translate(150, 900)">
    <!-- Skill 1 -->
    <rect width="180" height="90" rx="8" fill="#ffffff" stroke="#e2e8f0" stroke-width="1" filter="url(#lightShadow)" />
    <circle cx="35" cy="45" r="20" fill="#f1f5f9" />
    <text x="35" y="50" font-family="Arial, sans-serif" font-size="16" text-anchor="middle" fill="#94a3b8">🧠</text>
    <text x="80" y="50" font-family="Arial, sans-serif" font-size="16" fill="#334155">Machine Learning</text>
  </g>
  
  <g transform="translate(350, 900)">
    <!-- Skill 2 -->
    <rect width="180" height="90" rx="8" fill="#ffffff" stroke="#e2e8f0" stroke-width="1" filter="url(#lightShadow)" />
    <circle cx="35" cy="45" r="20" fill="#f1f5f9" />
    <text x="35" y="50" font-family="Arial, sans-serif" font-size="16" text-anchor="middle" fill="#94a3b8">🐍</text>
    <text x="80" y="50" font-family="Arial, sans-serif" font-size="16" fill="#334155">Python</text>
  </g>
  
  <g transform="translate(550, 900)">
    <!-- Skill 3 -->
    <rect width="180" height="90" rx="8" fill="#ffffff" stroke="#e2e8f0" stroke-width="1" filter="url(#lightShadow)" />
    <circle cx="35" cy="45" r="20" fill="#f1f5f9" />
    <text x="35" y="50" font-family="Arial, sans-serif" font-size="16" text-anchor="middle" fill="#94a3b8">📊</text>
    <text x="80" y="50" font-family="Arial, sans-serif" font-size="16" fill="#334155">Data Science</text>
  </g>
  
  <g transform="translate(750, 900)">
    <!-- Skill 4 -->
    <rect width="180" height="90" rx="8" fill="#ffffff" stroke="#e2e8f0" stroke-width="1" filter="url(#lightShadow)" />
    <circle cx="35" cy="45" r="20" fill="#f1f5f9" />
    <text x="35" y="50" font-family="Arial, sans-serif" font-size="16" text-anchor="middle" fill="#94a3b8">⚛️</text>
    <text x="80" y="50" font-family="Arial, sans-serif" font-size="16" fill="#334155">Deep Learning</text>
  </g>
  
  <!-- Experience Section -->
  <rect x="0" y="1100" width="1200" height="350" fill="#ffffff" />
  
  <text x="150" y="1150" font-family="Arial, sans-serif" font-size="32" font-weight="bold" fill="#0f172a">Work Experience</text>
  <rect x="150" y="1165" width="80" height="4" rx="2" fill="#8b5cf6" />
  
  <!-- Timeline -->
  <line x1="200" y1="1200" x2="200" y2="1400" stroke="#e2e8f0" stroke-width="2" />
  
  <!-- Experience Item 1 -->
  <circle cx="200" cy="1230" r="8" fill="#8b5cf6" />
  <rect x="230" y="1200" width="700" height="100" rx="8" fill="#ffffff" stroke="#e2e8f0" stroke-width="1" filter="url(#lightShadow)" />
  <text x="250" y="1225" font-family="Arial, sans-serif" font-size="14" fill="#94a3b8">2023 - Present</text>
  <text x="250" y="1250" font-family="Arial, sans-serif" font-size="18" font-weight="bold" fill="#0f172a">AI Research Engineer</text>
  <text x="250" y="1275" font-family="Arial, sans-serif" font-size="16" fill="#64748b">TechCorp Inc.</text>
  
  <!-- Experience Item 2 -->
  <circle cx="200" cy="1350" r="8" fill="#8b5cf6" />
  <rect x="230" y="1320" width="700" height="100" rx="8" fill="#ffffff" stroke="#e2e8f0" stroke-width="1" filter="url(#lightShadow)" />
  <text x="250" y="1345" font-family="Arial, sans-serif" font-size="14" fill="#94a3b8">2020 - 2023</text>
  <text x="250" y="1370" font-family="Arial, sans-serif" font-size="18" font-weight="bold" fill="#0f172a">Data Scientist</text>
  <text x="250" y="1395" font-family="Arial, sans-serif" font-size="16" fill="#64748b">AI Solutions Ltd.</text>
  
  <!-- Projects Section -->
  <rect x="0" y="1450" width="1200" height="400" fill="#f8fafc" />
  
  <text x="150" y="1500" font-family="Arial, sans-serif" font-size="32" font-weight="bold" fill="#0f172a">My Projects</text>
  <rect x="150" y="1515" width="80" height="4" rx="2" fill="#8b5cf6" />
  
  <!-- Project Cards -->
  <g transform="translate(150, 1550)">
    <!-- Project 1 -->
    <rect width="300" height="250" rx="8" fill="#ffffff" stroke="#e2e8f0" stroke-width="1" filter="url(#lightShadow)" />
    <rect x="0" y="0" width="300" height="150" rx="8 8 0 0" fill="#f1f5f9" />
    <text x="20" y="180" font-family="Arial, sans-serif" font-size="18" font-weight="bold" fill="#0f172a">USOPC DATA CHALLENGE</text>
    <rect x="20" y="195" width="260" height="2" rx="1" fill="#e2e8f0" />
    <rect x="20" y="205" width="240" height="2" rx="1" fill="#e2e8f0" />
    <rect x="20" y="215" width="220" height="2" rx="1" fill="#e2e8f0" />
  </g>
  
  <g transform="translate(480, 1550)">
    <!-- Project 2 -->
    <rect width="300" height="250" rx="8" fill="#ffffff" stroke="#e2e8f0" stroke-width="1" filter="url(#lightShadow)" />
    <rect x="0" y="0" width="300" height="150" rx="8 8 0 0" fill="#f1f5f9" />
    <text x="20" y="180" font-family="Arial, sans-serif" font-size="18" font-weight="bold" fill="#0f172a">Spotify Recommender</text>
    <rect x="20" y="195" width="260" height="2" rx="1" fill="#e2e8f0" />
    <rect x="20" y="205" width="240" height="2" rx="1" fill="#e2e8f0" />
    <rect x="20" y="215" width="220" height="2" rx="1" fill="#e2e8f0" />
  </g>
  
  <g transform="translate(810, 1550)">
    <!-- Project 3 -->
    <rect width="300" height="250" rx="8" fill="#ffffff" stroke="#e2e8f0" stroke-width="1" filter="url(#lightShadow)" />
    <rect x="0" y="0" width="300" height="150" rx="8 8 0 0" fill="#f1f5f9" />
    <text x="20" y="180" font-family="Arial, sans-serif" font-size="18" font-weight="bold" fill="#0f172a">Fantasy Predictor</text>
    <rect x="20" y="195" width="260" height="2" rx="1" fill="#e2e8f0" />
    <rect x="20" y="205" width="240" height="2" rx="1" fill="#e2e8f0" />
    <rect x="20" y="215" width="220" height="2" rx="1" fill="#e2e8f0" />
  </g>
  
  <!-- Contact Section -->
  <rect x="0" y="1850" width="1200" height="200" fill="#ffffff" />
  
  <text x="150" y="1900" font-family="Arial, sans-serif" font-size="32" font-weight="bold" fill="#0f172a">Contact</text>
  <rect x="150" y="1915" width="80" height="4" rx="2" fill="#8b5cf6" />
  
  <text x="150" y="1950" font-family="Arial, sans-serif" font-size="18" fill="#334155">You can reach out to me at <tspan fill="#8b5cf6">pablos.tselioudis@gmail.com</tspan></text>
  <text x="150" y="1985" font-family="Arial, sans-serif" font-size="18" fill="#334155">Or call me at <tspan fill="#8b5cf6">+34 606 97 06 31</tspan></text>
  
  <!-- Footer -->
  <rect x="0" y="2050" width="1200" height="100" fill="#121b2a" />
  
  <text x="600" y="2100" font-family="Arial, sans-serif" font-size="14" text-anchor="middle" fill="#94a3b8">© 2024 Pablos Tselioudis. All rights reserved.</text>
  
  <!-- Social Icons -->
  <circle cx="550" cy="2100" r="15" fill="#1e293b" />
  <circle cx="600" cy="2100" r="15" fill="#1e293b" />
  <circle cx="650" cy="2100" r="15" fill="#1e293b" />
</svg>
