<svg width="600" height="338" viewBox="0 0 600 338" fill="none" xmlns="http://www.w3.org/2000/svg">
  <!-- Background -->
  <rect width="600" height="338" fill="#ffffff" />
  
  <!-- Sidebar -->
  <rect x="0" y="0" width="160" height="338" fill="#1e293b" />
  
  <!-- Avatar -->
  <circle cx="80" cy="80" r="50" fill="#334155" />
  <text x="80" y="95" font-family="Arial, sans-serif" font-size="40" font-weight="bold" fill="#cbd5e1" text-anchor="middle">JS</text>
  
  <!-- Navigation -->
  <rect x="30" y="150" width="100" height="24" rx="4" fill="#2563eb" />
  <text x="80" y="167" font-family="Arial, sans-serif" font-size="12" font-weight="bold" fill="#ffffff" text-anchor="middle">About</text>
  
  <text x="80" y="197" font-family="Arial, sans-serif" font-size="12" font-weight="bold" fill="#cbd5e1" text-anchor="middle">Experience</text>
  <text x="80" y="227" font-family="Arial, sans-serif" font-size="12" font-weight="bold" fill="#cbd5e1" text-anchor="middle">Education</text>
  <text x="80" y="257" font-family="Arial, sans-serif" font-size="12" font-weight="bold" fill="#cbd5e1" text-anchor="middle">Skills</text>
  <text x="80" y="287" font-family="Arial, sans-serif" font-size="12" font-weight="bold" fill="#cbd5e1" text-anchor="middle">Projects</text>
  
  <!-- Main Content -->
  <text x="200" y="60" font-family="Arial, sans-serif" font-size="24" font-weight="bold" fill="#1e293b">John Smith</text>
  <text x="200" y="85" font-family="Arial, sans-serif" font-size="16" fill="#64748b">Software Developer</text>
  
  <!-- About Section -->
  <text x="200" y="130" font-family="Arial, sans-serif" font-size="18" font-weight="bold" fill="#1e293b">About</text>
  <rect x="200" y="140" width="50" height="3" fill="#2563eb" />
  
  <rect x="200" y="155" width="370" height="8" rx="4" fill="#e2e8f0" />
  <rect x="200" y="173" width="350" height="8" rx="4" fill="#e2e8f0" />
  <rect x="200" y="191" width="330" height="8" rx="4" fill="#e2e8f0" />
  <rect x="200" y="209" width="360" height="8" rx="4" fill="#e2e8f0" />
  
  <!-- Skills Section -->
  <text x="200" y="250" font-family="Arial, sans-serif" font-size="18" font-weight="bold" fill="#1e293b">Skills</text>
  <rect x="200" y="260" width="50" height="3" fill="#2563eb" />
  
  <!-- Skill Bars -->
  <text x="200" y="290" font-family="Arial, sans-serif" font-size="14" fill="#334155">JavaScript</text>
  <rect x="300" y="284" width="200" height="12" rx="6" fill="#e2e8f0" />
  <rect x="300" y="284" width="170" height="12" rx="6" fill="#2563eb" />
  
  <text x="200" y="315" font-family="Arial, sans-serif" font-size="14" fill="#334155">Python</text>
  <rect x="300" y="309" width="200" height="12" rx="6" fill="#e2e8f0" />
  <rect x="300" y="309" width="150" height="12" rx="6" fill="#2563eb" />
</svg> 