<svg width="300" height="400" viewBox="0 0 300 400" fill="none" xmlns="http://www.w3.org/2000/svg">
  <rect width="300" height="400" fill="#f9f9ff"/>
  <rect x="20" y="20" width="260" height="50" rx="8" fill="#ffffff" stroke="#e0e0e0" stroke-width="1"/>
  <rect x="30" y="35" width="40" height="20" rx="4" fill="#6c63ff"/>
  <rect x="120" y="35" width="20" height="20" rx="4" fill="#e0e0e0"/>
  <rect x="150" y="35" width="20" height="20" rx="4" fill="#e0e0e0"/>
  <rect x="180" y="35" width="20" height="20" rx="4" fill="#e0e0e0"/>
  <rect x="210" y="35" width="20" height="20" rx="4" fill="#e0e0e0"/>
  <rect x="240" y="35" width="30" height="20" rx="4" fill="#e0e0e0"/>
  
  <rect x="20" y="90" width="260" height="120" rx="8" fill="#ffffff" stroke="#e0e0e0" stroke-width="1"/>
  <rect x="30" y="110" width="120" height="20" rx="4" fill="#2d2d2d"/>
  <rect x="30" y="140" width="180" height="10" rx="4" fill="#888888"/>
  <rect x="30" y="160" width="160" height="10" rx="4" fill="#888888"/>
  <rect x="30" y="180" width="60" height="20" rx="10" fill="#6c63ff"/>
  <rect x="100" y="180" width="60" height="20" rx="10" fill="#ffffff" stroke="#6c63ff" stroke-width="1"/>
  <circle cx="230" cy="150" r="40" fill="#f0f0f0"/>
  <circle cx="230" cy="150" r="30" fill="#e0e0e0"/>
  
  <rect x="20" y="230" width="260" height="70" rx="8" fill="#ffffff" stroke="#e0e0e0" stroke-width="1"/>
  <rect x="30" y="245" width="80" height="10" rx="4" fill="#2d2d2d"/>
  <rect x="30" y="265" width="230" height="1" fill="#e0e0e0"/>
  <rect x="30" y="275" width="40" height="15" rx="7.5" fill="#6c63ff"/>
  <rect x="80" y="275" width="40" height="15" rx="7.5" fill="#e0e0e0"/>
  <rect x="130" y="275" width="40" height="15" rx="7.5" fill="#e0e0e0"/>
  
  <rect x="20" y="320" width="125" height="60" rx="8" fill="#ffffff" stroke="#e0e0e0" stroke-width="1"/>
  <rect x="30" y="335" width="60" height="10" rx="4" fill="#2d2d2d"/>
  <rect x="30" y="355" width="105" height="5" rx="2.5" fill="#e0e0e0"/>
  <rect x="30" y="365" width="85" height="5" rx="2.5" fill="#e0e0e0"/>
  
  <rect x="155" y="320" width="125" height="60" rx="8" fill="#ffffff" stroke="#e0e0e0" stroke-width="1"/>
  <rect x="165" y="335" width="60" height="10" rx="4" fill="#2d2d2d"/>
  <rect x="165" y="355" width="105" height="5" rx="2.5" fill="#e0e0e0"/>
  <rect x="165" y="365" width="85" height="5" rx="2.5" fill="#e0e0e0"/>
</svg> 